<?xml version="1.0" encoding="utf-8"?>
<!-- Generator: Adobe Illustrator 28.1.0, SVG Export Plug-In . SVG Version: 6.00 Build 0)  -->
<svg version="1.1" id="Laag_1" xmlns="http://www.w3.org/2000/svg" xmlns:xlink="http://www.w3.org/1999/xlink" x="0px" y="0px"
	 viewBox="0 0 1366 768" style="enable-background:new 0 0 1366 768;" xml:space="preserve">
<style type="text/css">
	.st0{fill:#2F594D;}
	.st1{font-family:'Rockwell-Regular';}
	.st2{font-size:229.3622px;}
	.st3{fill:#D9C1B4;}
	.st4{font-family:'Chalkduster';}
	.st5{font-size:140.7966px;}
	.st6{fill:none;stroke:#000000;stroke-miterlimit:10;}
	.st7{fill:#B8D9D9;stroke:#000000;stroke-miterlimit:10;}
</style>
<text transform="matrix(0.5978 0 0 1 334.0347 294.6792)" class="st0 st1 st2">Travel </text>
<text transform="matrix(0.8019 0 0 1 484.6216 433.5195)" class="st3 st4 st5">Explore</text>
<path class="st6" d="M803.1,223.8"/>
<g>
	<path class="st7" d="M933.3,197c9.6-4.1,20-6.9,29.9-4.4c2.3,0.6,4.8,1.8,5.6,4.4c1.1,3.8-2,7.3-4.7,9.5
		c-17.1,14.1-35,26.5-52.8,39c-20.2,14.1-41.2,28.5-64.4,31.1c-2.7-3-0.3-8.3,2.1-11.6C871,234.9,901.9,210.2,933.3,197z"/>
	<path class="st7" d="M914.3,206c-9.3-1-18.3-4.7-27.4-7.4s-18.7-4.5-27.7-1.6c-0.5,0.2-1,0.4-1.2,0.9c-0.3,0.7,0.2,1.6,0.6,2.2
		c2.2,2.9,4.5,5.5,7.1,7.9c6.4,5.9,14.2,10.3,18.4,18.7"/>
	<path class="st7" d="M935.9,228.3c-4.5,10-6.9,21.2-10,32c-3.1,10.8-7.2,21.5-14.2,29.2c-0.4,0.4-0.8,0.8-1.3,0.7
		c-0.7-0.1-1-1.1-1.1-1.9c-0.8-3.8-1.3-7.7-1.5-11.6c-0.5-9.8,0.8-20.2-2.7-29.1"/>
	<path class="st7" d="M829.7,273.8c3,4.5,6.2,8.9,9.4,13.1c3.1,4,6.3,7.9,9.6,11.7c0.6-6.7,2.6-16.5-1.8-22c-1.7-2.1-4-3-6.4-3.4
		C838.7,273,830.4,274.9,829.7,273.8z"/>
</g>
<g>
	<g>
		<path d="M775.8,313.7c1.9,0,1.9-3,0-3C773.9,310.7,773.9,313.7,775.8,313.7L775.8,313.7z"/>
	</g>
</g>
<g>
	<g>
		<path d="M815.6,297.1c1.9,0,1.9-3,0-3C813.7,294.1,813.7,297.1,815.6,297.1L815.6,297.1z"/>
	</g>
</g>
<g>
	<g>
		<path d="M797.4,307.5c1.9,0,1.9-3,0-3C795.5,304.5,795.5,307.5,797.4,307.5L797.4,307.5z"/>
	</g>
</g>
<g>
	<g>
		<path d="M750.8,319.9c1.9,0,1.9-3,0-3C748.9,316.9,748.9,319.9,750.8,319.9L750.8,319.9z"/>
	</g>
</g>
<g>
	<g>
		<path d="M720.9,317.8c1.9,0,1.9-3,0-3C719,314.8,719,317.8,720.9,317.8L720.9,317.8z"/>
	</g>
</g>
<g>
	<g>
		<path d="M694.4,317.8c1.9,0,1.9-3,0-3C692.4,314.8,692.4,317.8,694.4,317.8L694.4,317.8z"/>
	</g>
</g>
<g>
	<g>
		<path d="M647.8,317.8c1.9,0,1.9-3,0-3C645.9,314.8,645.9,317.8,647.8,317.8L647.8,317.8z"/>
	</g>
</g>
<g>
	<g>
		<path d="M671.1,319.9c1.9,0,1.9-3,0-3C669.2,316.9,669.2,319.9,671.1,319.9L671.1,319.9z"/>
	</g>
</g>
<g>
	<g>
		<path d="M626.2,317.8c1.9,0,1.9-3,0-3C624.3,314.8,624.3,317.8,626.2,317.8L626.2,317.8z"/>
	</g>
</g>
<g>
	<g>
		<path d="M598,319.9c1.9,0,1.9-3,0-3C596.1,316.9,596.1,319.9,598,319.9L598,319.9z"/>
	</g>
</g>
<g>
	<g>
		<path d="M568.1,319.9c1.9,0,1.9-3,0-3C566.2,316.9,566.2,319.9,568.1,319.9L568.1,319.9z"/>
	</g>
</g>
<g>
	<g>
		<path d="M528.2,319.9c1.9,0,1.9-3,0-3C526.3,316.9,526.3,319.9,528.2,319.9L528.2,319.9z"/>
	</g>
</g>
<g>
	<g>
		<path d="M544.8,319.9c1.9,0,1.9-3,0-3C542.9,316.9,542.9,319.9,544.8,319.9L544.8,319.9z"/>
	</g>
</g>
<g>
	<g>
		<path d="M513.2,326.1c1.9,0,1.9-3,0-3C511.3,323.1,511.3,326.1,513.2,326.1L513.2,326.1z"/>
	</g>
</g>
<g>
	<g>
		<path d="M491.6,336.5c1.9,0,1.9-3,0-3S489.7,336.5,491.6,336.5L491.6,336.5z"/>
	</g>
</g>
</svg>
